<?xml version="1.0" encoding="UTF-8" standalone="no"?>
<!-- Created with Inkscape (http://www.inkscape.org/) -->

<svg
   version="1.1"
   id="svg2"
   width="494.84537"
   height="413.19589"
   viewBox="0 0 494.84537 413.19589"
   sodipodi:docname="logo.svg"
   inkscape:version="1.1 (c68e22c387, 2021-05-23)"
   xmlns:inkscape="http://www.inkscape.org/namespaces/inkscape"
   xmlns:sodipodi="http://sodipodi.sourceforge.net/DTD/sodipodi-0.dtd"
   xmlns="http://www.w3.org/2000/svg"
   xmlns:svg="http://www.w3.org/2000/svg">
  <defs
     id="defs6" />
  <sodipodi:namedview
     id="namedview4"
     pagecolor="#dedede"
     bordercolor="#666666"
     borderopacity="1.0"
     inkscape:pageshadow="2"
     inkscape:pageopacity="0"
     inkscape:pagecheckerboard="0"
     showgrid="false"
     inkscape:zoom="0.47132608"
     inkscape:cx="-5.3041835"
     inkscape:cy="175.03805"
     inkscape:window-width="1920"
     inkscape:window-height="1001"
     inkscape:window-x="-9"
     inkscape:window-y="-9"
     inkscape:window-maximized="1"
     inkscape:current-layer="g8" />
  <g
     inkscape:groupmode="layer"
     inkscape:label="Image"
     id="g8">
    <rect
       style="fill:#ffffff;fill-opacity:1;stroke:none"
       id="rect1138"
       width="765.92407"
       height="765.92407"
       x="-103.96198"
       y="-294.9126"
       ry="3.75001"
       inkscape:export-filename="D:\my-book\assets\graphics\logo_alt.png"
       inkscape:export-xdpi="96"
       inkscape:export-ydpi="96" />
    <path
       id="path863"
       style="fill:#0055d4;stroke-width:0.999998;fill-opacity:1"
       d="m 29.63985,-152.08729 c -1.572251,0.0552 -1.95919,0.32666 -2.503083,0.86086 -1.052292,1.03356 -2.290227,15.49431 -17.9463681,209.43715 C -1.3225662,188.4417 -7.619025,269.23148 -7.6043718,273.72841 c 0.012909,3.95646 -0.2803545,11.08462 -0.6518967,15.84078 -0.9075734,11.61821 -1.5661572,10.77138 11.1662341,14.34392 13.6068204,3.81789 12.9609484,3.79633 15.4001154,0.51789 4.867845,-6.54278 31.422367,-27.34957 38.881913,-30.46636 7.523229,-3.14341 29.379406,-1.5242 56.074156,4.15441 37.58308,7.99478 95.57925,25.82869 148.35227,45.61661 5.15478,1.93285 10.33365,3.53254 11.5092,3.55474 1.17555,0.0222 2.65597,0.27355 3.289,0.55877 2.66868,1.20236 11.15344,-0.74092 23.65895,-5.4173 42.98592,-16.07437 91.28065,-31.39172 126.45818,-40.10846 36.49797,-9.04394 64.97621,-12.24877 74.28629,-8.35877 7.44587,3.11107 34.48109,24.33774 39.16811,30.75255 0.94955,1.29958 2.11463,2.3734 2.58939,2.38724 0.47478,0.0138 5.72758,-1.33314 11.67275,-2.99371 9.1168,-2.54642 10.95802,-3.24434 11.75225,-4.4565 0.8453,-1.29004 0.87211,-2.32284 0.26576,-10.08503 -0.37153,-4.75616 -0.66492,-11.88432 -0.65189,-15.84078 0.0149,-4.50016 -6.27403,-85.19302 -16.79477,-215.51769 -15.61257,-193.39917 -16.89701,-208.40604 -17.93956,-209.43033 -1.07763,-1.05876 -1.55575,-1.0754 -11.83401,-0.42248 -5.8911,0.37422 -14.0112,0.67711 -18.04404,0.67234 -7.13762,-0.008 -20.24094,1.13757 -39.57014,3.46162 -74.96601,9.01353 -126.89831,22.64215 -148.56123,38.98866 -2.39852,1.80989 -10.89473,8.988715 -18.87991,15.952084 -7.98518,6.963369 -14.72882,12.660811 -14.98673,12.660811 -0.2579,0 -7.00155,-5.697442 -14.98673,-12.660811 -7.98518,-6.963369 -16.48139,-14.142194 -18.87991,-15.952084 -21.00807,-15.85236 -70.45983,-29.1799 -141.36769,-38.10281 -21.980819,-2.76603 -38.852367,-4.3558 -46.166299,-4.34975 -4.04497,0.003 -12.300829,-0.3026 -18.346147,-0.67915 -5.288906,-0.32943 -8.047143,-0.4913 -9.619394,-0.43611 z m 476.03873,28.47206 c 0.36224,0.36225 31.74385,386.57358 31.43624,386.88382 -0.10199,0.10281 -2.10048,-1.22677 -4.44059,-2.95736 -7.2194,-5.33899 -15.81163,-10.75943 -19.31149,-12.18154 -23.74073,-9.64672 -79.97607,-0.37322 -164.43607,27.11602 -16.43738,5.34989 -46.26134,15.60877 -53.37574,18.35977 -0.95198,0.36811 -1.00623,-1.42475 -1.00623,-32.76274 v -33.15343 h -15.53868 -15.53868 v 33.0921 c 0,18.1997 -0.19418,33.06485 -0.43157,33.03531 -0.23739,-0.0295 -4.96394,-1.70908 -10.50297,-3.7342 C 206.55254,273.27176 151.60213,257.026 117.58183,250.1853 c -34.135987,-6.86397 -59.348976,-7.57511 -72.932537,-2.05561 -3.499868,1.42211 -12.092101,6.84255 -19.311485,12.18154 -2.340129,1.7306 -4.338838,3.06017 -4.440596,2.95736 -0.302533,-0.30574 31.073118,-386.5207 31.429425,-386.877 0.728955,-0.72896 44.425122,4.15777 66.981463,7.4911 38.90896,5.74985 69.08113,12.81259 89.78863,21.019581 13.23838,5.24676 16.35348,7.371416 36.55144,24.921843 l 17.81917,15.484174 v 21.489752 21.489764 h 15.53868 15.53868 V -33.18833 -54.666732 l 17.7919,-15.470532 c 9.78565,-8.508814 19.68403,-16.621048 21.99629,-18.028147 20.40481,-12.417139 67.47655,-23.766609 130.26733,-31.408989 17.97821,-2.18815 40.69586,-4.42333 41.07836,-4.04083 z"
       inkscape:export-filename="D:\my-book\assets\graphics\logo_alt.png"
       inkscape:export-xdpi="96"
       inkscape:export-ydpi="96" />
    <text
       xml:space="preserve"
       style="font-style:normal;font-variant:normal;font-weight:800;font-stretch:normal;font-size:84.7826px;line-height:1.25;font-family:'Open Sans';-inkscape-font-specification:'Open Sans Ultra-Bold';fill:#0055d4;stroke-width:0.999997;fill-opacity:1"
       x="70.735703"
       y="134.16241"
       id="text2454"
       transform="scale(0.99797322,1.0020309)"
       inkscape:export-filename="D:\my-book\assets\graphics\logo_alt.png"
       inkscape:export-xdpi="96"
       inkscape:export-ydpi="96"><tspan
         sodipodi:role="line"
         id="tspan2452"
         x="70.735703"
         y="134.16241"
         style="font-style:normal;font-variant:normal;font-weight:800;font-stretch:normal;font-family:'Open Sans';-inkscape-font-specification:'Open Sans Ultra-Bold';fill:#0055d4;stroke-width:0.999997;fill-opacity:1">MY BOOK</tspan></text>
  </g>
</svg>
